<svg viewBox="0 0 25 25" fill="none" xmlns="http://www.w3.org/2000/svg"><path fill-rule="evenodd" clip-rule="evenodd" d="M21.017 17.634H3.837v-1.2h17.18v1.2Z" fill="#101112"/><path d="M7.098 13.397V7.508H5.741L3.836 8.782v1.309l1.817-1.206h.088v4.512h-1.9v1.157H8.9v-1.157H7.098Zm2.72-3.765v.03h1.289v-.035c0-.674.469-1.133 1.167-1.133.684 0 1.128.4 1.128 1.011 0 .474-.25.845-1.211 1.807l-2.295 2.27v.972h4.966v-1.167H11.78v-.088l1.377-1.313c1.191-1.143 1.596-1.802 1.596-2.574 0-1.22-.981-2.046-2.436-2.046-1.48 0-2.5.918-2.5 2.266Zm7.852 1.831h.84c.81 0 1.332.405 1.332 1.035 0 .62-.512 1.016-1.318 1.016-.757 0-1.265-.381-1.314-.982h-1.284c.064 1.319 1.099 2.163 2.637 2.163 1.577 0 2.656-.854 2.656-2.104 0-.933-.566-1.558-1.518-1.67v-.088c.771-.156 1.245-.766 1.245-1.596 0-1.114-.972-1.87-2.403-1.87-1.489 0-2.431.81-2.48 2.133h1.235c.044-.62.508-1.015 1.202-1.015.707 0 1.157.37 1.157.957 0 .59-.46.976-1.162.976h-.826v1.045Z" fill="#101112"/></svg>