<svg viewBox="0 0 24 24" fill="none" xmlns="http://www.w3.org/2000/svg"><path d="M12 2.75a3.75 3.75 0 1 0 0 7.5 3.75 3.75 0 0 0 0-7.5ZM6.75 6.5a5.25 5.25 0 1 1 10.5 0 5.25 5.25 0 0 1-10.5 0Zm-2.5 12.071a5.321 5.321 0 0 1 5.321-5.321h4.858a5.321 5.321 0 0 1 5.321 5.321 4.179 4.179 0 0 1-4.179 4.179H8.43a4.179 4.179 0 0 1-4.179-4.179Zm5.321-3.821a3.821 3.821 0 0 0-3.821 3.821 2.68 2.68 0 0 0 2.679 2.679h7.142a2.68 2.68 0 0 0 2.679-2.679 3.82 3.82 0 0 0-3.821-3.821H9.57Z" fill-rule="evenodd" clip-rule="evenodd" fill="#000"/></svg>